<svg width="66" height="66" viewBox="0 0 66 66" fill="none" xmlns="http://www.w3.org/2000/svg">
<path d="M59.3131 25.1154C60.4524 25.1154 61.3756 24.192 61.3756 23.0529C61.3756 21.9138 60.4524 20.9904 59.3131 20.9904V25.1154ZM33 57.0994L31.0494 57.7696C31.3354 58.6026 32.1192 59.1619 33 59.1619C33.8808 59.1619 34.6646 58.6026 34.9506 57.7696L33 57.0994ZM6.68679 20.9904C5.54771 20.9904 4.62429 21.9138 4.62429 23.0529C4.62429 24.192 5.54771 25.1154 6.68679 25.1154V20.9904ZM49.4373 11.598L57.473 20.7523L60.5731 18.031L52.5374 8.87679L49.4373 11.598ZM57.6449 25.688L35.9925 54.1916L39.2771 56.6866L60.9298 28.1832L57.6449 25.688ZM30.0077 54.1916L8.35499 25.688L5.07025 28.1832L26.7229 56.6866L30.0077 54.1916ZM8.52703 20.7523L16.5628 11.598L13.4627 8.87679L5.42698 18.031L8.52703 20.7523ZM38.8473 10.3126H46.6169V6.18756H38.8473V10.3126ZM44.6946 25.1154H59.3131V20.9904H44.6946V25.1154ZM36.9292 9.0078L42.7765 23.8107L46.613 22.2952L40.7657 7.49233L36.9292 9.0078ZM34.9506 57.7696L46.6455 23.7229L42.7441 22.3829L31.0494 56.4295L34.9506 57.7696ZM19.3831 10.3126H27.8022V6.18756H19.3831V10.3126ZM27.8022 10.3126H38.8473V6.18756H27.8022V10.3126ZM6.68679 25.1154H21.3052V20.9904H6.68679V25.1154ZM21.3052 25.1154H44.6946V20.9904H21.3052V25.1154ZM25.9137 7.42113L19.4166 22.224L23.1938 23.8818L29.6909 9.07899L25.9137 7.42113ZM34.9506 56.4295L23.2559 22.3829L19.3546 23.7229L31.0494 57.7696L34.9506 56.4295ZM8.35499 25.688C7.23591 24.2149 7.30988 22.1389 8.52703 20.7523L5.42698 18.031C2.91439 20.8934 2.76641 25.1505 5.07025 28.1832L8.35499 25.688ZM35.9925 54.1916C34.477 56.1861 31.523 56.1861 30.0077 54.1916L26.7229 56.6866C29.8889 60.8545 36.1111 60.8545 39.2771 56.6866L35.9925 54.1916ZM57.473 20.7523C58.6902 22.1389 58.7642 24.2149 57.6449 25.688L60.9298 28.1832C63.2335 25.1505 63.0855 20.8934 60.5731 18.031L57.473 20.7523ZM52.5374 8.87679C51.0392 7.17019 48.8854 6.18756 46.6169 6.18756V10.3126C47.6886 10.3126 48.716 10.7764 49.4373 11.598L52.5374 8.87679ZM16.5628 11.598C17.284 10.7764 18.3113 10.3126 19.3831 10.3126V6.18756C17.1145 6.18756 14.9608 7.17019 13.4627 8.87679L16.5628 11.598Z" fill="#0029EA"/>
</svg>
