<svg width="46" height="19" viewBox="0 0 46 19" fill="none" xmlns="http://www.w3.org/2000/svg">
<path fill-rule="evenodd" clip-rule="evenodd" d="M15.2006 1.89882C12.8932 3.63201 11.4006 6.39146 11.4006 9.49951C11.4006 12.6076 12.8932 15.367 15.2006 17.1002C13.6129 18.2928 11.6393 18.9995 9.50061 18.9995C4.25391 18.9995 0.000610352 14.7462 0.000610352 9.49951C0.000610352 4.25281 4.25391 -0.000488281 9.50061 -0.000488281C11.6393 -0.000488281 13.6129 0.706208 15.2006 1.89882ZM30.4006 1.89882C32.7081 3.63201 34.2006 6.39146 34.2006 9.49951C34.2006 12.6076 32.7081 15.367 30.4006 17.1002C31.9884 18.2928 33.962 18.9995 36.1006 18.9995C41.3473 18.9995 45.6006 14.7462 45.6006 9.49951C45.6006 4.25281 41.3473 -0.000488281 36.1006 -0.000488281C33.962 -0.000488281 31.9884 0.706208 30.4006 1.89882ZM22.8006 18.9995C28.0473 18.9995 32.3006 14.7462 32.3006 9.49951C32.3006 4.25281 28.0473 -0.000488281 22.8006 -0.000488281C17.5539 -0.000488281 13.3006 4.25281 13.3006 9.49951C13.3006 14.7462 17.5539 18.9995 22.8006 18.9995Z" fill="url(#paint0_linear_378_2057)"/>
<defs>
<linearGradient id="paint0_linear_378_2057" x1="-1.99939" y1="9.99951" x2="45.6006" y2="9.49951" gradientUnits="userSpaceOnUse">
<stop stop-color="#D9D9D9" stop-opacity="0"/>
<stop offset="1" stop-color="#0029EA"/>
</linearGradient>
</defs>
</svg>
