<svg width="66" height="66" viewBox="0 0 66 66" fill="none" xmlns="http://www.w3.org/2000/svg">
<path d="M16.5 13.7501C16.5 10.7125 14.0376 8.25009 11 8.25009C7.96243 8.25009 5.5 10.7125 5.5 13.7501V52.2501C5.5 55.2877 7.96243 57.7501 11 57.7501C14.0376 57.7501 16.5 55.2877 16.5 52.2501V13.7501Z" stroke="#0029EA" stroke-width="5.1835"/>
<path d="M38.5 27.5001C38.5 24.4625 36.0375 22.0001 33 22.0001C29.9624 22.0001 27.5 24.4625 27.5 27.5001V52.25C27.5 55.2876 29.9624 57.75 33 57.75C36.0375 57.75 38.5 55.2876 38.5 52.25V27.5001Z" fill="#0029EA" stroke="#0029EA" stroke-width="5.1835"/>
<path d="M60.5 13.7501C60.5 10.7125 58.0376 8.25009 55 8.25009C51.9624 8.25009 49.5 10.7125 49.5 13.7501V52.2501C49.5 55.2877 51.9624 57.7501 55 57.7501C58.0376 57.7501 60.5 55.2877 60.5 52.2501V13.7501Z" stroke="#0029EA" stroke-width="5.1835"/>
</svg>
