<svg width="66" height="66" viewBox="0 0 66 66" fill="none" xmlns="http://www.w3.org/2000/svg">
<path d="M46.7016 7.6903L45.4241 9.89893C41.9438 8.02303 37.991 6.91068 33.7872 6.78684V4.23531C38.4522 4.3607 42.843 5.59713 46.7016 7.6903ZM46.9291 10.4417L47.9337 8.70467C48.0741 9.05556 48.0577 9.46506 47.8538 9.81758C47.6499 10.1701 47.3031 10.3884 46.9291 10.4417ZM32.2127 6.78685C18.3548 7.19541 7.19537 18.3549 6.78681 32.2128H4.23526C4.64532 16.9461 16.9461 4.64536 32.2127 4.2353V6.78685ZM32.2127 61.7647C16.9461 61.3546 4.64531 49.0539 4.23526 33.7872H6.78681C7.19538 47.645 18.3548 58.8046 32.2127 59.2131V61.7647ZM33.7872 61.7647V59.2131C47.645 58.8046 58.8045 47.645 59.2131 33.7872H61.7646C61.3546 49.054 49.0539 61.3546 33.7872 61.7647ZM61.7646 32.2128H59.2131C59.1344 29.542 58.6568 26.9732 57.8383 24.563L60.2284 23.6698C61.1505 26.3611 61.6845 29.2313 61.7646 32.2128ZM58.3222 22.1804C58.7037 22.0379 59.1102 22.0897 59.4328 22.2863L57.5532 22.9887C57.668 22.6286 57.9409 22.3229 58.3222 22.1804ZM59.0224 11.086L57.5308 9.74365C57.9031 9.67897 58.3003 9.7797 58.603 10.0521C58.9057 10.3246 59.0476 10.709 59.0224 11.086ZM56.2753 10.732L58.1713 12.4383L37.9462 34.9107L36.0502 33.2044L56.2753 10.732ZM36.8592 36.0507C34.6177 38.0267 31.3268 38.2958 28.794 36.7103L30.4047 34.6968C31.8562 35.4676 33.6356 35.3222 34.9425 34.3256L36.8592 36.0507ZM29.1294 33.7706L27.5362 35.7622L19.068 28.9877L20.6613 26.996L29.1294 33.7706ZM18.2541 26.7033C18.5085 26.3853 18.8841 26.2214 19.262 26.2247L18.0085 27.7918C17.9222 27.4238 17.9998 27.0213 18.2541 26.7033Z" fill="#28303F" stroke="#0029EA" stroke-width="1.57448"/>
</svg>
