<svg width="719" height="110" viewBox="0 0 719 110" fill="none" xmlns="http://www.w3.org/2000/svg">
<path fill-rule="evenodd" clip-rule="evenodd" d="M211.029 10C211.029 15.5228 206.551 20 201.029 20C195.506 20 191.029 15.5228 191.029 10C191.029 4.47715 195.506 0 201.029 0C206.551 0 211.029 4.47715 211.029 10ZM185.232 84.9763C184.97 84.8166 184.799 84.7005 184.72 84.6446C184.475 84.4524 184.22 84.2702 183.955 84.0991C183.642 83.8969 183.322 83.7141 182.995 83.5506C182.932 83.5158 182.829 83.4583 182.691 83.3776C182.337 83.1705 181.76 82.8151 181.031 82.3042C179.563 81.2752 177.544 79.6613 175.5 77.4167C171.474 72.9948 167.362 66.1719 167.023 56.1607C166.688 46.3076 170.15 39.4045 173.625 34.8992C175.393 32.6076 177.174 30.9332 178.47 29.8613C179.113 29.3289 179.623 28.9567 179.932 28.7421C180.085 28.6351 180.187 28.5684 180.229 28.5417L180.24 28.5348C184.918 25.6796 186.43 19.581 183.611 14.8674C180.776 10.1275 174.636 8.58299 169.896 11.4177L175.028 20C169.896 11.4177 169.891 11.4202 169.887 11.4228L169.878 11.4283L169.859 11.4401L169.814 11.467L169.76 11.5002L169.704 11.5344C169.622 11.5853 169.522 11.6485 169.405 11.7239C169.171 11.8746 168.868 12.0749 168.508 12.3255C167.789 12.8261 166.832 13.5319 165.721 14.4508C163.508 16.2815 160.629 19.0027 157.79 22.6832C152.051 30.122 146.513 41.4687 147.034 56.8388C147.567 72.5587 154.206 83.7359 160.711 90.8814C163.934 94.4204 167.126 96.982 169.553 98.6826C170.771 99.5364 171.812 100.184 172.59 100.639C172.8 100.762 172.991 100.871 173.162 100.967C173.588 101.268 174.143 101.639 174.825 102.055C176.246 102.921 178.226 103.983 180.765 105.015C185.864 107.086 193.139 109 202.529 109C210.91 109 217.658 106.979 222.374 104.901C224.73 103.863 226.593 102.804 227.923 101.961C228.516 101.585 229.006 101.249 229.391 100.974C229.563 100.878 229.755 100.768 229.967 100.645C230.744 100.19 231.785 99.5417 233.004 98.6878C235.43 96.9873 238.623 94.4257 241.845 90.8866C248.351 83.7411 254.989 72.564 255.522 56.844C256.044 41.474 250.505 30.1272 244.767 22.6884C241.928 19.008 239.048 16.2868 236.835 14.4561C235.724 13.5372 234.768 12.8313 234.048 12.3307C233.688 12.0801 233.386 11.8799 233.152 11.7291C233.035 11.6537 232.934 11.5906 232.852 11.5396L232.781 11.4958L232.742 11.4722L232.698 11.4453L232.678 11.4335L232.669 11.4281C232.665 11.4255 232.661 11.4229 227.528 20.0052L232.661 11.4229C227.921 8.58824 221.78 10.1327 218.946 14.8726C216.127 19.5862 217.639 25.6848 222.317 28.5401L222.328 28.5469C222.369 28.5737 222.471 28.6403 222.625 28.7473C222.933 28.962 223.443 29.3341 224.087 29.8665C225.383 30.9384 227.163 32.6128 228.931 34.9044C232.407 39.4097 235.868 46.3128 235.534 56.1659C235.194 66.1772 231.082 73.0001 227.056 77.4219C225.013 79.6666 222.994 81.2804 221.526 82.3094C220.797 82.8204 220.219 83.1758 219.866 83.3829C219.777 83.4347 219.703 83.477 219.644 83.5099C219.011 83.8192 218.402 84.2005 217.827 84.6548L217.813 84.6653L217.788 84.6836C217.7 84.7473 217.507 84.8838 217.212 85.0706C216.621 85.4457 215.64 86.0124 214.308 86.5992C211.649 87.7711 207.647 89.0001 202.529 89.0001C195.918 89.0001 191.193 87.6636 188.292 86.4854C186.831 85.8917 185.811 85.3289 185.232 84.9763ZM618.019 92.4115C615.593 97.3728 617.647 103.362 622.609 105.788C627.57 108.215 633.559 106.16 635.985 101.199L645.131 82.5001H690.24L699.424 101.211C701.858 106.169 707.85 108.215 712.808 105.782C717.765 103.348 719.812 97.3565 717.378 92.3987L676.978 10.0937C676.426 8.96784 675.69 7.99211 674.824 7.1849C674.012 6.31262 673.03 5.57169 671.896 5.01695C666.934 2.59043 660.945 4.64522 658.519 9.60645L618.019 92.4115ZM681.895 65.5001H653.445L667.645 36.4682L681.895 65.5001ZM526 4C520.477 4 516 8.47715 516 14C516 19.5228 520.477 24 526 24H547V96C547 101.523 551.477 106 557 106C562.523 106 567 101.523 567 96V14.0125V14C567 8.47715 562.523 4 557 4H526ZM598 14C598 19.5228 593.523 24 588 24C582.477 24 578 19.5228 578 14C578 8.47715 582.477 4 588 4C593.523 4 598 8.47715 598 14ZM413 13.6001V95.6001C413 99.7162 415.487 103.251 419.04 104.785C420.472 105.605 422.128 106.081 423.896 106.1L471.896 106.6C477.418 106.657 481.942 102.227 481.999 96.7043C482.057 91.1817 477.627 86.6582 472.104 86.6006L433 86.1933V64.6001H466.5C472.023 64.6001 476.5 60.1229 476.5 54.6001C476.5 49.0773 472.023 44.6001 466.5 44.6001H433V23.6001H444C449.523 23.6001 454 19.1229 454 13.6001C454 8.07725 449.523 3.6001 444 3.6001H423C421.619 3.6001 420.304 3.87992 419.108 4.38595C415.518 5.90403 413 9.45796 413 13.6001ZM472.273 24C477.796 24 482.273 19.5228 482.273 14C482.273 8.47715 477.796 4 472.273 4C466.751 4 462.273 8.47715 462.273 14C462.273 19.5228 466.751 24 472.273 24ZM290 14V98C290 103.523 294.477 108 300 108C305.523 108 310 103.523 310 98V38.1912L360.801 103.232L360.836 103.276C362.648 105.832 365.629 107.5 369 107.5C374.523 107.5 379 103.023 379 97.5V43C379 37.4772 374.523 33 369 33C363.477 33 359 37.4772 359 43V73.3086L308.199 8.26779L308.163 8.22179C306.351 5.66717 303.37 4 300 4C294.477 4 290 8.47715 290 14ZM369 24C374.523 24 379 19.5228 379 14C379 8.47715 374.523 4 369 4C363.477 4 359 8.47715 359 14C359 19.5228 363.477 24 369 24ZM51.0682 106.591C50.3996 105.941 49.8518 105.191 49.4363 104.38L20 48.7761V99.0557C20 104.579 15.5228 109.056 10 109.056C4.47715 109.056 0 104.579 0 99.0557V15.0557C0 9.53281 4.47715 5.05566 10 5.05566C13.3513 5.05566 16.3176 6.70422 18.1321 9.23463C18.4617 9.64639 18.7576 10.0949 19.0135 10.5782L56.9126 82.1676L94.4503 9.59496C96.1219 6.36318 99.5788 4.65597 102.991 5.05567L103 5.05566C108.523 5.05566 113 9.53281 113 15.0557V69.5557C113 75.0785 108.523 79.5557 103 79.5557C97.4772 79.5557 93 75.0785 93 69.5557V49.4017L64.6003 104.308C64.1949 105.119 63.6581 105.869 63.0009 106.523C62.2638 107.258 61.4058 107.841 60.4771 108.257C59.3669 108.756 58.1987 108.997 57.0443 109.002C55.885 109.009 54.7094 108.778 53.5899 108.286C52.6648 107.882 51.8078 107.312 51.0682 106.591ZM103 109C108.523 109 113 104.523 113 99.0001C113 93.4772 108.523 89.0001 103 89.0001C97.4772 89.0001 93 93.4772 93 99.0001C93 104.523 97.4772 109 103 109Z" fill="url(#paint0_linear_596_5189)"/>
<defs>
<linearGradient id="paint0_linear_596_5189" x1="-2.78371e-07" y1="55" x2="700" y2="55" gradientUnits="userSpaceOnUse">
<stop stop-color="#0535F6"/>
<stop offset="1" stop-color="#4BBAFA"/>
</linearGradient>
</defs>
</svg>
