<?xml version="1.0" standalone="no"?>
<!DOCTYPE svg PUBLIC "-//W3C//DTD SVG 20010904//EN"
 "http://www.w3.org/TR/2001/REC-SVG-20010904/DTD/svg10.dtd">
<svg version="1.0" xmlns="http://www.w3.org/2000/svg"
 width="386.000000pt" height="386.000000pt" viewBox="0 0 386.000000 386.000000"
 preserveAspectRatio="xMidYMid meet">
<metadata>
Created by potrace 1.14, written by Peter Selinger 2001-2017
</metadata>
<g transform="translate(0.000000,386.000000) scale(0.100000,-0.100000)"
fill="#000000" stroke="none">
<path d="M1740 3853 c-31 -3 -138 -22 -225 -38 -182 -35 -446 -145 -630 -263
-182 -117 -336 -258 -481 -442 -89 -112 -202 -303 -251 -425 -112 -273 -154
-502 -148 -800 2 -99 5 -187 8 -195 3 -8 8 -35 11 -60 3 -25 7 -54 10 -65 2
-11 10 -42 16 -70 6 -27 13 -59 16 -69 2 -11 17 -60 34 -110 141 -415 412
-763 780 -1004 209 -138 510 -255 737 -287 23 -3 57 -8 75 -11 73 -12 386 -11
478 1 535 74 986 336 1301 756 99 131 166 247 243 421 49 110 106 323 131 488
11 73 13 399 3 470 -9 63 -11 76 -23 150 -35 205 -155 498 -282 688 -31 48
-63 94 -69 102 -333 418 -732 658 -1239 746 -84 15 -410 26 -495 17z"/>
</g>
</svg>
