<svg width="1918" height="518" viewBox="0 0 1918 518" fill="none" xmlns="http://www.w3.org/2000/svg">
<path fill-rule="evenodd" clip-rule="evenodd" d="M-1 0L39 57C79 115 159 230 239 278C319 326 399 307 479 336C559 364 639 441 719 451C799 460 879 403 959 364C1038 326 1118 307 1198 326C1278 345 1358 403 1438 412C1518 422 1598 384 1678 326C1758 268 1838 192 1878 153L1918 115V518H1878C1838 518 1758 518 1678 518C1598 518 1518 518 1438 518C1358 518 1278 518 1198 518C1118 518 1038 518 959 518C879 518 799 518 719 518C639 518 559 518 479 518C399 518 319 518 239 518C159 518 79 518 39 518H-1V0Z" fill="#0029EA" fill-opacity="0.1"/>
</svg>
